<svg width="24" height="15" viewBox="0 0 24 15" fill="none" xmlns="http://www.w3.org/2000/svg">
<g id="amex" clip-path="url(#clip0_1_182)">
<g id="Group">
<path id="Vector" opacity="0.07" d="M22.1053 0.5H1.89474C0.821053 0.5 0 1.25833 0 2.25V12.75C0 13.7417 0.88421 14.5 1.89474 14.5H22.1053C23.1789 14.5 24 13.7417 24 12.75V2.25C24 1.25833 23.1158 0.5 22.1053 0.5Z" fill="black"/>
<path id="Vector_2" d="M22.1055 1.08331C22.8003 1.08331 23.3687 1.60831 23.3687 2.24998V12.75C23.3687 13.3916 22.8003 13.9166 22.1055 13.9166H1.89499C1.20026 13.9166 0.631836 13.3916 0.631836 12.75V2.24998C0.631836 1.60831 1.20026 1.08331 1.89499 1.08331H22.1055Z" fill="#006FCF"/>
<path id="Vector_3" d="M5.66595 6.48969L6.15479 7.58402H5.18089L5.66595 6.48969ZM15.8186 6.53519H13.9384V7.0176H15.7883V7.74035H13.9422V8.27819H15.8224V8.70927L17.1342 7.39969L15.8224 6.03469L15.8186 6.53519ZM6.93668 5.17019H9.45984L10.0201 6.29894L10.5392 5.16669H17.0887L17.7695 5.86085L18.4737 5.16669H21.4819L19.2594 7.41369L21.4592 9.64669H18.4062L17.7253 8.95252L17.0148 9.64669H6.33479L6.02279 8.95252H5.3091L4.99647 9.64669H2.52637L4.60174 5.16669H6.76805L6.93668 5.17019ZM12.4081 5.79902H10.9939L10.0466 7.86169L9.02026 5.79902H7.61689V8.60485L6.31584 5.79902H5.0571L3.55268 9.01435H4.53479L4.84679 8.32019H6.48637L6.79837 9.01435H8.51626V6.71894L9.62216 9.01785H10.3737L11.4727 6.72594V9.01844H12.3935L12.4087 5.79844L12.4081 5.79902ZM18.307 7.41369L19.9055 5.79902H18.7548L17.7436 6.80585L16.7659 5.79902H13.0434V9.01785H16.7129L17.7323 8.00402L18.7099 9.01785H19.8942L18.3076 7.41369H18.307Z" fill="white"/>
</g>
</g>
<defs>
<clipPath id="clip0_1_182">
<rect width="24" height="14" fill="white" transform="translate(0 0.5)"/>
</clipPath>
</defs>
</svg>
