<svg width="24" height="15" viewBox="0 0 24 15" fill="none" xmlns="http://www.w3.org/2000/svg">
<g id="apple pay" clip-path="url(#clip0_1_176)">
<path id="Vector" d="M21.7179 0.5H2.28151C2.20054 0.5 2.11944 0.5 2.03861 0.500396C1.97038 0.500925 1.90229 0.501585 1.83406 0.503303C1.68543 0.507002 1.53552 0.515194 1.38876 0.539504C1.24157 0.562795 1.09896 0.60621 0.965625 0.66832C0.69758 0.79424 0.479708 0.995468 0.343374 1.24304C0.276007 1.36623 0.228996 1.49805 0.203904 1.63411C0.177297 1.7698 0.168571 1.90813 0.164566 2.04526C0.162823 2.10823 0.161774 2.17121 0.161419 2.2342C0.161133 2.30871 0.161133 2.38349 0.161133 2.4584V12.5415C0.161133 12.6164 0.161133 12.691 0.161419 12.7659C0.161848 12.8288 0.162706 12.8918 0.164566 12.9549C0.168571 13.0917 0.17744 13.2302 0.203904 13.3658C0.228944 13.5018 0.275908 13.6336 0.343231 13.7568C0.410918 13.8799 0.49927 13.9922 0.605005 14.0898C0.71056 14.1875 0.832232 14.2691 0.965482 14.3315C1.10095 14.3954 1.2397 14.4359 1.3889 14.4606C1.53552 14.4848 1.68543 14.493 1.83406 14.4967C1.90229 14.4981 1.97038 14.4989 2.03861 14.4993C2.11944 14.4999 2.20054 14.4999 2.28151 14.4999H21.7179C21.7987 14.4999 21.8798 14.4999 21.9607 14.4993C22.0288 14.4991 22.0968 14.4981 22.1654 14.4967C22.3137 14.493 22.4636 14.4848 22.6107 14.4606C22.7579 14.4373 22.9005 14.3938 23.0338 14.3315C23.3017 14.2055 23.5195 14.0043 23.6561 13.7568C23.7251 13.6317 23.7689 13.5036 23.7954 13.3658C23.822 13.2302 23.8306 13.0917 23.8346 12.9549C23.8364 12.8918 23.8374 12.8288 23.8377 12.7659C23.8383 12.691 23.8383 12.6164 23.8383 12.5415V2.45853C23.8383 2.38362 23.8383 2.30884 23.8377 2.23406C23.8374 2.17112 23.8364 2.10818 23.8346 2.04526C23.8306 1.90813 23.822 1.7698 23.7954 1.63411C23.7705 1.49803 23.7235 1.36619 23.6561 1.24304C23.5197 0.995512 23.3018 0.794299 23.0338 0.66832C22.9005 0.606274 22.7578 0.562904 22.6107 0.539636C22.4636 0.515194 22.3137 0.507134 22.1654 0.503435C22.0971 0.501835 22.0289 0.500866 21.9607 0.500528C21.8798 0.5 21.7987 0.5 21.7179 0.5Z" fill="#E4E4E4"/>
<path id="Vector_2" d="M21.7176 0.966675L21.9567 0.967071C22.0214 0.967468 22.0862 0.968128 22.1513 0.969714C22.2647 0.97262 22.3972 0.978301 22.5208 0.99878C22.628 1.01662 22.7182 1.0437 22.8046 1.08439C22.9775 1.16559 23.1179 1.29547 23.2057 1.45525C23.2494 1.53452 23.2786 1.61723 23.2979 1.71724C23.32 1.83007 23.3261 1.95281 23.3291 2.05811C23.331 2.11756 23.3318 2.17702 23.332 2.23779C23.3327 2.31138 23.3327 2.38484 23.3327 2.45856V12.5416C23.3327 12.6154 23.3327 12.6888 23.3321 12.7639C23.3318 12.8233 23.331 12.8828 23.3293 12.9422C23.3261 13.0474 23.32 13.1701 23.2976 13.2843C23.2814 13.3751 23.2503 13.4631 23.2054 13.5452C23.1175 13.705 22.9768 13.8349 22.8037 13.9161C22.7179 13.9565 22.628 13.9836 22.5218 14.0013C22.3957 14.022 22.2576 14.0277 22.1536 14.0303C22.0882 14.0317 22.0231 14.0326 21.9563 14.0329C21.8769 14.0334 21.7971 14.0334 21.7176 14.0334H2.278C2.19933 14.0334 2.12065 14.0334 2.04055 14.0329C1.97617 14.0326 1.9118 14.0318 1.84743 14.0305C1.74101 14.0278 1.60283 14.022 1.4778 14.0014C1.37896 13.9862 1.28317 13.9572 1.19371 13.9155C1.1079 13.8753 1.02958 13.8226 0.961692 13.7596C0.893589 13.6968 0.836712 13.6245 0.793184 13.5452C0.748231 13.4626 0.717076 13.3742 0.700776 13.2829C0.678461 13.1689 0.672167 13.0467 0.669306 12.9423C0.66769 12.8827 0.666736 12.823 0.666445 12.7633L0.666016 12.588V2.41232L0.666302 2.23726C0.666597 2.1775 0.667551 2.11773 0.669163 2.05798C0.67231 1.95334 0.678461 1.83113 0.700919 1.71619C0.717251 1.62514 0.748406 1.5369 0.793327 1.45446C0.836952 1.37518 0.893926 1.30281 0.962121 1.24003C1.03017 1.17708 1.10858 1.12446 1.19443 1.08413C1.28367 1.04272 1.37915 1.01395 1.47766 0.99878C1.60139 0.978301 1.734 0.97262 1.84758 0.969714C1.91213 0.968241 1.97669 0.96736 2.04126 0.967071L2.28115 0.966675H21.7176Z" fill="white"/>
<path id="Vector_3" d="M6.38508 5.22592C6.58591 4.99405 6.72209 4.68264 6.68619 4.3645C6.39237 4.37798 6.0339 4.54352 5.82619 4.77566C5.63981 4.97436 5.47487 5.29872 5.51779 5.60351C5.84765 5.62994 6.17723 5.45131 6.38508 5.22592ZM6.68247 5.6631C6.20326 5.63668 5.79615 5.91413 5.56742 5.91413C5.33855 5.91413 4.98823 5.67631 4.6093 5.68279C4.11622 5.68939 3.65876 5.94702 3.40843 6.35659C2.89375 7.17573 3.27253 8.39123 3.77319 9.05843C4.01623 9.38873 4.30919 9.75205 4.69513 9.73897C5.0599 9.72576 5.2028 9.52098 5.64596 9.52098C6.08897 9.52098 6.21771 9.73897 6.60379 9.73237C7.00404 9.72576 7.25437 9.40207 7.4974 9.07177C7.77634 8.69523 7.89035 8.33191 7.8975 8.31209C7.89035 8.30548 7.12563 8.03451 7.11847 7.22197C7.11132 6.54156 7.71898 6.21787 7.74759 6.19792C7.40442 5.72916 6.86829 5.67631 6.68233 5.6631" fill="black"/>
<g id="Group">
<path id="Vector_4" d="M11.4578 4.74237C12.4989 4.74237 13.224 5.40521 13.224 6.37021C13.224 7.33864 12.484 8.00492 11.4318 8.00492H10.2791V9.69816H9.44629V4.74237H11.4578ZM10.2791 7.35925H11.2347C11.9599 7.35925 12.3724 6.9987 12.3724 6.37365C12.3724 5.74872 11.9598 5.39147 11.2384 5.39147H10.2791V7.35925ZM13.4306 8.6712C13.4306 8.03584 13.9548 7.67185 14.9215 7.61689L15.9589 7.55849V7.28368C15.9589 6.88204 15.6727 6.66219 15.1633 6.66219C14.743 6.66219 14.438 6.8613 14.3751 7.16689H13.6238C13.6463 6.52479 14.3006 6.05775 15.1856 6.05775C16.1374 6.05775 16.7584 6.51792 16.7584 7.23229V9.69803H15.9888V9.10389H15.9702C15.7508 9.49192 15.2673 9.73568 14.743 9.73568C13.9697 9.73568 13.4306 9.30999 13.4306 8.6712ZM15.9589 8.35186V8.07362L15.0331 8.12858C14.5124 8.1595 14.2412 8.33799 14.2412 8.65045C14.2412 8.95274 14.5237 9.14854 14.9662 9.14854C15.5312 9.14854 15.9589 8.81534 15.9589 8.35186ZM17.466 11.0236V10.4296C17.5181 10.4363 17.6444 10.4432 17.7114 10.4432C18.0794 10.4432 18.2877 10.2992 18.4141 9.92804L18.4885 9.70833L17.0792 6.1024H17.9492L18.931 9.02831H18.9496L19.9311 6.1024H20.779L19.3176 9.89026C18.9829 10.7592 18.6 11.0443 17.7895 11.0443C17.7262 11.0443 17.5217 11.0374 17.466 11.0236Z" fill="black"/>
</g>
</g>
<defs>
<clipPath id="clip0_1_176">
<rect width="24" height="14" fill="white" transform="translate(0 0.5)"/>
</clipPath>
</defs>
</svg>
