<svg width="22" height="22" viewBox="0 0 22 22" fill="none" xmlns="http://www.w3.org/2000/svg">
<g id="fluent:arrow-sync-checkmark-20-regular">
<path id="Vector" d="M12.5562 3.9985C12.6593 3.89536 12.7173 3.75549 12.7173 3.60965C12.7173 3.46381 12.6593 3.32394 12.5562 3.2208L10.2231 0.887698C10.1194 0.787511 9.98047 0.732075 9.83626 0.733328C9.69206 0.734581 9.55411 0.792424 9.45214 0.894398C9.35016 0.996373 9.29232 1.13432 9.29106 1.27853C9.28981 1.42274 9.34525 1.56167 9.44544 1.6654L10.5421 2.7621C8.85129 2.85608 7.23032 3.46813 5.89932 4.51513C4.56831 5.56214 3.59175 6.99338 3.10221 8.61454C2.61268 10.2357 2.6339 11.9682 3.16298 13.5769C3.69207 15.1856 4.70339 16.5925 6.05963 17.6066C6.17633 17.6941 6.32301 17.7317 6.46742 17.7111C6.61182 17.6904 6.74211 17.6133 6.82964 17.4966C6.91716 17.3799 6.95474 17.2332 6.93411 17.0888C6.91348 16.9444 6.83633 16.8141 6.71964 16.7266C5.41064 15.7481 4.47637 14.3507 4.07242 12.7671C3.66847 11.1835 3.81922 9.50929 4.49956 8.02332C5.17991 6.53736 6.34879 5.32932 7.81153 4.60039C9.27427 3.87146 10.9426 3.66564 12.5386 4.0172L12.5562 3.9985ZM9.44544 17.9993L9.46304 17.9817C9.91184 18.0807 10.3771 18.1357 10.8534 18.1467L10.8468 18.1533C10.8738 18.1498 10.901 18.1484 10.9282 18.1489C12.4361 18.1646 13.9104 17.703 15.1402 16.8304C16.3701 15.9577 17.2925 14.7185 17.7756 13.29C18.2587 11.8615 18.2778 10.3168 17.8302 8.87676C17.3825 7.43674 16.491 6.17513 15.2831 5.2723C15.2254 5.22896 15.1767 5.17467 15.1399 5.11252C15.1031 5.05037 15.0789 4.98158 15.0687 4.91008C15.0584 4.83858 15.0624 4.76577 15.0803 4.6958C15.0983 4.62583 15.1298 4.56008 15.1731 4.5023C15.2165 4.44452 15.2708 4.39584 15.3329 4.35904C15.3951 4.32224 15.4639 4.29804 15.5354 4.28783C15.6069 4.27761 15.6797 4.28158 15.7496 4.29951C15.8196 4.31743 15.8854 4.34896 15.9431 4.3923C17.2994 5.4064 18.3107 6.81329 18.8398 8.42198C19.3689 10.0307 19.3901 11.7632 18.9006 13.3844C18.411 15.0055 17.4345 16.4368 16.1035 17.4838C14.7724 18.5308 13.1515 19.1428 11.4606 19.2368L12.5562 20.3324C12.6088 20.3831 12.6507 20.4438 12.6795 20.5109C12.7083 20.578 12.7235 20.6502 12.7241 20.7232C12.7248 20.7963 12.7108 20.8687 12.6832 20.9363C12.6555 21.0039 12.6147 21.0653 12.5631 21.1169C12.5114 21.1686 12.45 21.2094 12.3824 21.2371C12.3148 21.2647 12.2424 21.2786 12.1694 21.278C12.0963 21.2774 12.0242 21.2622 11.9571 21.2334C11.89 21.2045 11.8293 21.1626 11.7785 21.1101L9.44544 18.7781C9.39422 18.727 9.35358 18.6663 9.32585 18.5995C9.29812 18.5327 9.28385 18.461 9.28385 18.3887C9.28385 18.3164 9.29812 18.2447 9.32585 18.1779C9.35358 18.1111 9.39422 18.0504 9.44544 17.9993ZM13.5902 8.9595C13.6415 9.01059 13.6821 9.07128 13.7098 9.1381C13.7375 9.20492 13.7518 9.27655 13.7518 9.3489C13.7518 9.42124 13.7375 9.49288 13.7098 9.5597C13.6821 9.62652 13.6415 9.68721 13.5902 9.7383L10.2902 13.0383C10.2391 13.0895 10.1785 13.1302 10.1116 13.1579C10.0448 13.1856 9.97318 13.1999 9.90084 13.1999C9.82849 13.1999 9.75686 13.1856 9.69004 13.1579C9.62322 13.1302 9.56253 13.0895 9.51144 13.0383L7.86143 11.3883C7.75816 11.285 7.70014 11.145 7.70014 10.9989C7.70014 10.8528 7.75816 10.7128 7.86143 10.6095C7.96471 10.5062 8.10478 10.4482 8.25083 10.4482C8.39689 10.4482 8.53696 10.5062 8.64024 10.6095L9.90084 11.8712L12.8114 8.9595C12.8625 8.90828 12.9232 8.86764 12.99 8.83991C13.0569 8.81219 13.1285 8.79792 13.2008 8.79792C13.2732 8.79792 13.3448 8.81219 13.4116 8.83991C13.4785 8.86764 13.5391 8.90828 13.5902 8.9595ZM5.50084 11C5.50084 9.54131 6.0803 8.14236 7.11175 7.11091C8.1432 6.07946 9.54214 5.5 11.0008 5.5C12.4595 5.5 13.8585 6.07946 14.8899 7.11091C15.9214 8.14236 16.5008 9.54131 16.5008 11C16.5008 12.4587 15.9214 13.8576 14.8899 14.8891C13.8585 15.9205 12.4595 16.5 11.0008 16.5C9.54214 16.5 8.1432 15.9205 7.11175 14.8891C6.0803 13.8576 5.50084 12.4587 5.50084 11ZM11.0008 6.6C9.83388 6.6 8.71473 7.06357 7.88956 7.88873C7.0644 8.71389 6.60084 9.83305 6.60084 11C6.60084 12.167 7.0644 13.2861 7.88956 14.1113C8.71473 14.9364 9.83388 15.4 11.0008 15.4C12.1678 15.4 13.2869 14.9364 14.1121 14.1113C14.9373 13.2861 15.4008 12.167 15.4008 11C15.4008 9.83305 14.9373 8.71389 14.1121 7.88873C13.2869 7.06357 12.1678 6.6 11.0008 6.6Z" fill="white"/>
</g>
</svg>
