<svg width="22" height="22" viewBox="0 0 22 22" fill="none" xmlns="http://www.w3.org/2000/svg">
<g id="fluent:checkmark-starburst-20-regular">
<path id="Vector" d="M9.30657 2.08629L10.3956 2.51529C10.784 2.66823 11.216 2.66823 11.6045 2.51529L12.6935 2.08629C13.3346 1.83416 14.0485 1.84059 14.6849 2.10423C15.3214 2.36788 15.8307 2.86817 16.1057 3.49979L16.5721 4.57229C16.7386 4.95505 17.044 5.26046 17.4268 5.42699L18.4993 5.89339C19.1312 6.16839 19.6317 6.6779 19.8953 7.3146C20.159 7.95129 20.1652 8.66547 19.9128 9.30669L19.4838 10.3957C19.3311 10.7838 19.3311 11.2154 19.4838 11.6035L19.9128 12.6925C20.1649 13.3336 20.1585 14.0475 19.8948 14.6839C19.6312 15.3204 19.1309 15.8297 18.4993 16.1047L17.4268 16.5711C17.044 16.7375 16.7385 17.043 16.5721 17.4258L16.1057 18.4983C15.8307 19.1302 15.3212 19.6307 14.6845 19.8943C14.0478 20.158 13.3336 20.1643 12.6924 19.9118L11.6034 19.4828C11.2152 19.3301 10.7837 19.3301 10.3956 19.4828L9.30657 19.9118C8.66548 20.1639 7.95157 20.1575 7.31513 19.8939C6.67869 19.6302 6.16936 19.1299 5.89437 18.4983L5.42797 17.4258C5.26144 17.043 4.95603 16.7376 4.57327 16.5711L3.50077 16.1047C2.86888 15.8297 2.36839 15.3202 2.10472 14.6835C1.84106 14.0468 1.8348 13.3326 2.08727 12.6914L2.51627 11.6024C2.66892 11.2143 2.66892 10.7827 2.51627 10.3946L2.08727 9.30559C1.83513 8.66451 1.84156 7.9506 2.10521 7.31415C2.36885 6.67771 2.86915 6.16839 3.50077 5.89339L4.57327 5.42699C4.95603 5.26046 5.26144 4.95505 5.42797 4.57229L5.89437 3.49979C6.16936 2.86791 6.67887 2.36741 7.31557 2.10375C7.95227 1.84008 8.66645 1.83382 9.30767 2.08629H9.30657ZM13.0961 3.10929L12.0071 3.53829C11.3599 3.79299 10.6402 3.79299 9.99297 3.53829L8.90397 3.10929C8.52797 2.9615 8.1093 2.96536 7.73609 3.12006C7.36288 3.27476 7.06425 3.56824 6.90307 3.93869L6.43667 5.01119C6.15911 5.64912 5.65009 6.15814 5.01217 6.43569L3.93967 6.90209C3.56914 7.06348 3.27572 7.36237 3.12121 7.73582C2.96671 8.10926 2.96318 8.5281 3.11137 8.90409L3.53927 9.99199C3.79397 10.6392 3.79397 11.3589 3.53927 12.0061L3.11027 13.0951C2.80337 13.8761 3.16967 14.7605 3.93967 15.096L5.01217 15.5624C5.65009 15.84 6.15911 16.349 6.43667 16.9869L6.90307 18.0594C7.06445 18.4299 7.36335 18.7233 7.73679 18.8779C8.11024 19.0324 8.52908 19.0359 8.90507 18.8877L9.99297 18.4587C10.6402 18.204 11.3599 18.204 12.0071 18.4587L13.0961 18.8877C13.8771 19.1957 14.7615 18.8294 15.097 18.0594L15.5634 16.9869C15.8409 16.349 16.3499 15.84 16.9879 15.5624L18.0604 15.096C18.4309 14.9346 18.7243 14.6357 18.8788 14.2623C19.0333 13.8888 19.0369 13.47 18.8887 13.094L18.4597 12.0061C18.205 11.3589 18.205 10.6392 18.4597 9.99199L18.8887 8.90299C19.0365 8.52713 19.0328 8.10857 18.8783 7.73538C18.7239 7.36219 18.4306 7.06347 18.0604 6.90209L16.9879 6.43569C16.3499 6.15814 15.8409 5.64912 15.5634 5.01119L15.097 3.93869C14.9356 3.56817 14.6367 3.27474 14.2632 3.12024C13.8898 2.96573 13.471 2.9622 13.095 3.11039L13.0961 3.10929ZM9.87637 12.9477L13.8892 8.43329C13.9807 8.33197 14.1067 8.26834 14.2426 8.25478C14.3785 8.24123 14.5146 8.27872 14.6244 8.35995C14.7342 8.44119 14.8098 8.56037 14.8366 8.69429C14.8633 8.82821 14.8393 8.9673 14.7692 9.08449L14.7109 9.16479L10.3109 14.1148C10.2221 14.2146 10.1 14.2787 9.96741 14.2951C9.83482 14.3115 9.7008 14.2791 9.59037 14.2039L9.51117 14.1379L7.31117 11.9379C7.21373 11.8409 7.15616 11.7109 7.1498 11.5735C7.14344 11.4362 7.18876 11.3014 7.27682 11.1959C7.36489 11.0903 7.48931 11.0215 7.62557 11.0031C7.76183 10.9847 7.90004 11.018 8.01297 11.0964L8.08887 11.1602L9.87637 12.9477Z" fill="white"/>
</g>
</svg>
