<svg width="88" height="32" viewBox="0 0 88 32" fill="none" xmlns="http://www.w3.org/2000/svg">
<g id="Frame 1484578055">
<g id="McAfee_Secure">
<path id="Path_29" d="M15.2579 32C15.2579 32 -1.85272 26.1496 0.165459 2.21607C5.07928 0.886427 10.1686 0.0886427 15.2579 0C20.435 0.0886427 25.5243 0.797784 30.4381 2.21607C32.4563 26.0609 15.2579 32 15.2579 32Z" fill="url(#paint0_linear_1_24)"/>
<path id="Path_30" d="M15.2579 32C15.2579 32 -1.85272 26.1496 0.165459 2.21607C5.07928 0.886427 10.1686 0.0886427 15.2579 0C20.435 0.0886427 25.5243 0.797784 30.4381 2.21607L28.8587 3.63435L15.2579 30.4931V32Z" fill="url(#paint1_linear_1_24)"/>
<path id="Path_31" d="M15.2579 30.4931C15.2579 30.4931 -0.185525 25.1745 1.56941 3.45706C6.0445 2.21606 10.6073 1.50692 15.2579 1.41827C19.9085 1.50692 24.5591 2.21606 29.0342 3.45706C30.7891 25.0859 15.2579 30.4931 15.2579 30.4931Z" fill="white" stroke="black" stroke-width="0.515" stroke-linecap="round"/>
<g id="Group_9">
<path id="Path_32" d="M15.2579 30.4931C15.2579 30.4931 -0.185525 25.1745 1.56941 3.45706C6.0445 2.21606 10.6073 1.50692 15.2579 1.41827C19.9085 1.50692 24.5591 2.21606 29.0342 3.45706C30.7891 25.0859 15.2579 30.4931 15.2579 30.4931Z" fill="white"/>
</g>
<path id="Path_33" d="M1.48165 3.19113H1.30616V3.36842C0.428687 14.7147 4.2018 21.5402 7.62392 25.2632C9.72985 27.6565 12.3623 29.518 15.2579 30.6704L15.3456 30.759H15.4334C18.329 29.6066 20.9614 27.7451 23.0674 25.3518C26.4017 21.6288 30.2626 14.8033 29.2974 3.5457V3.27977H29.1219C24.6468 2.03878 19.9962 1.41828 15.3456 1.32964C10.6951 1.41828 6.04448 2.03878 1.48165 3.19113ZM15.5211 1.50692C19.9962 1.59556 24.5591 2.30471 28.9464 3.45706C29.0341 4.52077 29.0341 5.85041 29.0341 6.82548C29.0341 15.9557 25.6998 21.7174 22.7164 24.9972C20.6982 27.3019 18.1535 29.1634 15.2579 30.3158C12.45 29.1634 9.90534 27.3019 7.79942 24.9972C4.90377 21.7174 1.56939 16.0443 1.56939 6.82548C1.56939 5.85041 1.65714 4.52077 1.74489 3.45706C2.79785 3.36842 9.20337 1.50692 15.5211 1.50692Z" fill="url(#paint2_linear_1_24)"/>
<path id="Path_34" d="M15.2579 27.7452C15.2579 27.7452 2.27137 22.9585 3.76307 4.78671C3.76307 4.78671 9.46661 5.22993 15.2579 5.22993C21.0492 5.22993 26.665 4.78671 26.8405 4.78671C28.3322 22.9585 15.2579 27.7452 15.2579 27.7452Z" fill="url(#paint3_linear_1_24)"/>
<path id="Path_35" d="M15.2579 26.2382C15.2579 26.2382 4.02629 22.072 5.34249 6.38228C5.34249 6.38228 10.2563 6.73685 15.2579 6.73685C20.2594 6.73685 25.0855 6.38228 25.261 6.38228C26.5772 21.9834 15.2579 26.1496 15.2579 26.2382Z" fill="url(#paint4_radial_1_24)"/>
<path id="Path_36" d="M26.8405 4.78671C26.665 4.78671 21.0492 5.22993 15.2579 5.22993C9.4666 5.22993 3.76306 4.78671 3.76306 4.78671L5.3425 6.38228C5.3425 6.38228 10.2563 6.73685 15.2579 6.73685C20.2595 6.73685 25.0855 6.29364 25.261 6.29364L26.8405 4.78671Z" fill="#8B1325"/>
<path id="Path_37" d="M15.2579 27.7452C15.2579 27.7452 2.27137 22.9585 3.76307 4.78671L5.34251 6.38228C4.11405 22.072 15.2579 26.2382 15.2579 26.2382V27.7452Z" fill="url(#paint5_linear_1_24)"/>
<g id="Group_11">
<g id="Group_10">
<path id="Path_38" d="M8.32593 19.9446L10.1686 7.71191H13.2398L17.1006 19.9446H13.854L12.1868 13.651L11.2216 19.9446H8.32593Z" fill="white"/>
</g>
</g>
<g id="Group_13">
<g id="Group_12">
<path id="Path_39" d="M17.5393 7.71191H20.6104L22.3654 19.9446H19.4697L18.4168 13.5623L17.3638 18.5263L15.7844 13.5623L17.5393 7.71191Z" fill="white"/>
</g>
</g>
<g id="Group_14">
<path id="Path_40" d="M43.3369 13.651H41.0555L38.8618 7.97784L38.0721 13.651H35.5274L37.1946 3.10249H39.6515L43.3369 13.651ZM41.6697 8.24377L43.5124 3.10249H46.057L47.5487 13.651H45.0041L44.3021 7.97784L42.8104 11.3463L41.6697 8.24377Z" fill="black"/>
<path id="Path_41" d="M57.0254 11.7895L56.4112 13.5623H53.8665L57.3764 3.01385H60.0088L63.4309 13.5623H60.8863L60.272 11.7895H57.0254ZM58.6926 6.29363L57.6396 9.66206H59.6578L58.6926 6.29363Z" fill="black"/>
<path id="Path_42" d="M76.1541 10.4598H71.2403C71.2403 11.5235 71.7668 12.0554 72.6442 12.0554C73.083 12.0554 73.5217 11.8781 73.785 11.4349H75.9786C75.8031 12.2327 75.3644 12.8532 74.7502 13.2964C74.1359 13.7396 73.434 13.9169 72.6442 13.9169C70.7138 14.0942 69.0466 12.5873 68.8711 10.6371V10.1053C68.6956 8.15512 70.0996 6.47091 72.03 6.29362H72.4688C74.7502 6.29362 76.0664 7.88919 76.0664 10.2825L76.1541 10.4598ZM74.0482 8.9529C73.9604 8.33241 73.3462 7.80055 72.732 7.80055C72.03 7.80055 71.5035 8.24376 71.328 8.9529H74.0482Z" fill="black"/>
<path id="Path_43" d="M84.1391 10.4598H79.2253C79.2253 11.5235 79.7518 12.0554 80.717 12.0554C81.1557 12.0554 81.5945 11.8781 81.8577 11.4349H84.0514C83.8759 12.2327 83.4371 12.8532 82.8229 13.2964C82.2087 13.7396 81.5067 13.9169 80.717 13.9169C78.7866 14.0942 77.0316 12.5873 76.9439 10.6371V10.1053C76.7684 8.15512 78.1723 6.47091 80.1028 6.29362H80.6293C82.9107 6.29362 84.2269 7.88919 84.2269 10.2825L84.1391 10.4598ZM82.0332 8.9529C81.9455 8.33241 81.3312 7.80055 80.717 7.80055C80.015 7.80055 79.4885 8.24376 79.313 8.9529H82.0332Z" fill="black"/>
<path id="Path_44" d="M84.4901 5.05264C84.4901 4.07757 85.2798 3.27979 86.245 3.27979C87.2103 3.27979 88 4.07757 88 5.05264C88 6.02771 87.2103 6.82549 86.245 6.82549C85.2798 6.82549 84.4901 6.11635 84.4901 5.05264ZM84.7533 5.05264C84.7533 5.85042 85.4553 6.55956 86.245 6.55956C87.0348 6.55956 87.7367 5.85042 87.7367 5.05264C87.7367 4.25485 87.0348 3.54571 86.245 3.54571C85.4553 3.54571 84.7533 4.16621 84.7533 5.05264ZM87.1225 6.02771H86.7715L86.245 5.14128H85.8941V6.02771H85.6308V4.07757H86.4205C86.7715 4.07757 87.1225 4.16621 87.1225 4.60943C87.1225 4.87535 86.947 5.14128 86.6838 5.14128H86.5083L87.1225 6.02771ZM85.8941 4.3435V4.87535H86.245C86.5083 4.87535 86.8593 4.87535 86.8593 4.60943C86.8593 4.3435 86.6838 4.3435 86.4205 4.3435H85.8941Z" fill="black"/>
</g>
<g id="Group_15">
<path id="Path_45" d="M64.3084 8.24376H62.9922V6.47091H64.3961V5.67313C64.3961 3.54571 65.3613 2.83656 67.204 2.83656C67.6428 2.83656 67.9938 2.9252 68.3447 2.9252L68.257 4.60942C67.9938 4.52077 67.8183 4.52077 67.555 4.52077C66.9408 4.52077 66.7653 4.96399 66.7653 5.67313V6.47091H68.4325V8.24376H66.6775V13.651H64.3084V8.24376Z" fill="black"/>
</g>
<g id="Group_16">
<path id="Path_46" d="M40.7044 18.7036C40.0902 18.4377 39.476 18.2604 38.8618 18.2604C38.072 18.2604 37.1068 18.5263 37.1068 19.59C37.1068 21.4515 41.4942 21.0083 41.4942 24.2881C41.4942 26.4155 39.827 27.3019 37.8088 27.3019C37.1068 27.3019 36.4049 27.1247 35.7906 26.8587L35.9661 25.5291C36.6681 25.795 37.3701 25.9723 38.072 26.0609C38.8618 26.0609 40.0025 25.6177 40.0025 24.3767C40.0025 22.1607 35.7029 22.6925 35.7029 19.6787C35.7029 17.9058 37.1946 17.0194 38.9495 17.0194C39.6515 17.0194 40.4412 17.1967 41.1432 17.374L40.7044 18.7036Z" fill="black"/>
<path id="Path_47" d="M43.4246 17.1967H49.1282V18.4377H44.9163V21.3629H48.7772V22.6039H44.9163V25.8836H49.1282V27.1246H43.4246V17.1967Z" fill="black"/>
<path id="Path_48" d="M57.8151 18.7922C57.2009 18.4377 56.4989 18.2604 55.7092 18.2604C53.6032 18.2604 51.8483 19.9446 51.8483 22.072C51.8483 24.1994 53.5155 25.9723 55.6214 25.9723C56.4111 25.9723 57.1131 25.795 57.8151 25.4404L57.9028 26.7701C57.2009 27.036 56.4111 27.2133 55.6214 27.2133C52.4625 27.2133 50.2689 25.1745 50.2689 21.9834C50.2689 18.9695 52.5503 16.8421 55.6214 16.8421C56.4111 16.8421 57.2009 16.9307 57.9028 17.2853L57.8151 18.7922Z" fill="black"/>
<path id="Path_49" d="M67.0285 22.9584C67.0285 25.795 65.5368 27.2133 63.0799 27.2133C60.623 27.2133 59.1313 25.7064 59.1313 22.9584V17.1967H60.5352V22.8698C60.5352 24.7313 61.1495 26.0609 62.9921 26.0609C64.8348 26.0609 65.4491 24.7313 65.4491 22.8698V17.1967H66.9408L67.0285 22.9584Z" fill="black"/>
<path id="Path_50" d="M69.3099 17.1967H71.7668C73.785 17.1967 75.7155 17.5512 75.7155 19.856C75.7155 21.0083 74.7502 21.9834 73.6095 22.072C74.0483 22.2493 74.2238 22.4266 74.5747 23.0471L76.5052 27.036H74.838L73.2585 23.5789C72.8198 22.6039 72.2933 22.6039 71.5914 22.6039H70.7139V27.036H69.3099V17.1967ZM70.7139 21.4515H71.9423C73.3463 21.4515 74.136 20.831 74.136 19.856C74.136 18.9695 73.434 18.349 72.1178 18.349H70.7139V21.4515Z" fill="black"/>
<path id="Path_51" d="M78.1724 17.1967H83.8759V18.4377H79.6641V21.3629H83.5249V22.6039H79.6641V25.8836H83.8759V27.1246H78.1724V17.1967Z" fill="black"/>
</g>
<path id="Path_52" d="M53.34 8.68699C52.9013 8.42106 52.4626 8.24377 51.9361 8.24377C50.9709 8.24377 50.1811 9.04156 50.1811 10.0166V10.1939C50.1811 11.169 50.9709 12.0554 52.0238 12.0554H52.1116C52.6381 12.0554 53.0768 11.9668 53.6033 11.7008V13.4737C52.989 13.7396 52.3748 13.8283 51.7606 13.8283C49.7424 14.0055 48.0752 12.4986 47.8997 10.4598V10.1053C47.812 8.06649 49.3914 6.38228 51.4096 6.38228H51.7606C52.3748 6.38228 52.989 6.47092 53.5155 6.82549L53.34 8.68699Z" fill="black"/>
</g>
</g>
<defs>
<linearGradient id="paint0_linear_1_24" x1="12.3259" y1="2.91024" x2="29.7881" y2="32.9988" gradientUnits="userSpaceOnUse">
<stop stop-color="#646567"/>
<stop offset="0.097" stop-color="#717274"/>
<stop offset="0.317" stop-color="#898B8D"/>
<stop offset="0.54" stop-color="#9A9B9D"/>
<stop offset="0.766" stop-color="#A4A5A7"/>
<stop offset="1" stop-color="#A7A8AA"/>
</linearGradient>
<linearGradient id="paint1_linear_1_24" x1="18.4746" y1="9.876" x2="-3.2089" y2="23.0287" gradientUnits="userSpaceOnUse">
<stop stop-color="#C6C7C8"/>
<stop offset="0.092" stop-color="#DCDDDD"/>
<stop offset="0.203" stop-color="#F0F0F0"/>
<stop offset="0.316" stop-color="#FBFBFB"/>
<stop offset="0.433" stop-color="white"/>
<stop offset="0.537" stop-color="#F6F7F7"/>
<stop offset="0.704" stop-color="#DFDFE0"/>
<stop offset="0.913" stop-color="#B9BABB"/>
<stop offset="1" stop-color="#A7A8AA"/>
</linearGradient>
<linearGradient id="paint2_linear_1_24" x1="24.0608" y1="6.50982" x2="1.25515" y2="20.8326" gradientUnits="userSpaceOnUse">
<stop stop-color="#4B4B4D"/>
<stop offset="0.013" stop-color="#4D4D4F"/>
<stop offset="0.253" stop-color="#67686A"/>
<stop offset="0.497" stop-color="#797A7C"/>
<stop offset="0.744" stop-color="#838486"/>
<stop offset="1" stop-color="#87888A"/>
</linearGradient>
<linearGradient id="paint3_linear_1_24" x1="8.85822" y1="7.66138" x2="27.7369" y2="21.6343" gradientUnits="userSpaceOnUse">
<stop stop-color="#8B1325"/>
<stop offset="0.607" stop-color="#CB0233"/>
<stop offset="0.708" stop-color="#CB0233"/>
<stop offset="1" stop-color="#8A193F"/>
</linearGradient>
<radialGradient id="paint4_radial_1_24" cx="0" cy="0" r="1" gradientUnits="userSpaceOnUse" gradientTransform="translate(-8440.89 -6145.15) scale(20.2313 20.4378)">
<stop stop-color="#CB0233"/>
<stop offset="0.461" stop-color="#CB0233"/>
<stop offset="1" stop-color="#8A193F"/>
</radialGradient>
<linearGradient id="paint5_linear_1_24" x1="0.378496" y1="26.888" x2="21.1862" y2="20.6914" gradientUnits="userSpaceOnUse">
<stop stop-color="#8B1325"/>
<stop offset="0.607" stop-color="#CB0233"/>
<stop offset="0.708" stop-color="#CB0233"/>
<stop offset="1" stop-color="#8A193F"/>
</linearGradient>
</defs>
</svg>
