<svg width="24" height="15" viewBox="0 0 24 15" fill="none" xmlns="http://www.w3.org/2000/svg">
<g id="gpay" clip-path="url(#clip0_1_167)">
<g id="Group 10">
<path id="Vector" opacity="0.07" d="M22.1053 0.5H1.89474C0.821053 0.5 0 1.25833 0 2.25V12.75C0 13.7417 0.88421 14.5 1.89474 14.5H22.1053C23.1789 14.5 24 13.7417 24 12.75V2.25C24 1.25833 23.1158 0.5 22.1053 0.5Z" fill="black"/>
<path id="Vector_2" d="M22.1055 1.08331C22.8003 1.08331 23.3687 1.60831 23.3687 2.24998V12.75C23.3687 13.3916 22.8003 13.9166 22.1055 13.9166H1.89499C1.20026 13.9166 0.631836 13.3916 0.631836 12.75V2.24998C0.631836 1.60831 1.20026 1.08331 1.89499 1.08331H22.1055Z" fill="white"/>
<path id="Vector_3" d="M11.4271 7.48607V9.35274H10.7842V4.74441H12.4838C12.6874 4.74122 12.8897 4.77525 13.0791 4.84452C13.2684 4.9138 13.4411 5.01696 13.5871 5.14807C13.7255 5.2673 13.837 5.41055 13.9154 5.56961C13.9937 5.72868 14.0374 5.90045 14.0438 6.07511C14.0503 6.24977 14.0194 6.42389 13.953 6.58752C13.8865 6.75115 13.7858 6.90108 13.6566 7.02874L13.5871 7.09641C13.2903 7.35716 12.8937 7.49891 12.4838 7.48957L11.4271 7.48607ZM11.4271 5.30907V6.93541H12.4995C12.7377 6.94241 12.9675 6.85666 13.1343 6.69974C13.2536 6.58492 13.3336 6.44025 13.3646 6.28373C13.3955 6.1272 13.376 5.96573 13.3083 5.81939C13.2407 5.67305 13.1279 5.54832 12.9841 5.46069C12.8403 5.37307 12.6718 5.32643 12.4995 5.32657L11.4271 5.30907ZM15.5223 6.09541C15.9328 6.07791 16.3345 6.20507 16.6452 6.45299C16.9263 6.70382 17.076 7.05382 17.0558 7.41491V9.35974H16.4438V8.91291H16.4128C16.3031 9.0805 16.1479 9.21875 15.9625 9.31399C15.7772 9.40924 15.5682 9.45818 15.3562 9.45599C15.01 9.46634 14.6724 9.35526 14.4113 9.14507C14.2876 9.05187 14.1885 8.93391 14.1214 8.80011C14.0543 8.6663 14.0211 8.52016 14.0242 8.37274C14.0169 8.22375 14.0482 8.07531 14.1156 7.93976C14.1829 7.80421 14.2843 7.68547 14.4113 7.59341C14.723 7.38642 15.1001 7.28076 15.4838 7.29299C15.8103 7.28132 16.1343 7.34724 16.4248 7.48607V7.36474C16.4269 7.26442 16.4043 7.16497 16.3587 7.07391C16.3131 6.98286 16.2456 6.90258 16.1614 6.83916C15.9924 6.6972 15.7709 6.6204 15.5425 6.62449C15.3766 6.62304 15.213 6.66069 15.0673 6.73388C14.9215 6.80706 14.7983 6.91336 14.7094 7.04274L14.1442 6.71374C14.2977 6.51062 14.5049 6.34717 14.7461 6.23894C14.9873 6.1307 15.2545 6.08129 15.5223 6.09541ZM14.7094 8.38674C14.7079 8.46229 14.7265 8.53703 14.7637 8.60437C14.8008 8.67171 14.8552 8.72959 14.9223 8.77291C15.0631 8.87557 15.2381 8.92982 15.4181 8.92632C15.689 8.92574 15.9486 8.82716 16.1419 8.65099C16.3345 8.48416 16.4438 8.25141 16.4438 8.00757C16.2006 7.84792 15.9052 7.77084 15.6075 7.78941C15.3764 7.781 15.1485 7.8411 14.957 7.96091C14.8812 8.00776 14.819 8.07109 14.7758 8.14534C14.7326 8.21958 14.7098 8.30247 14.7094 8.38674ZM20.5743 6.19924L18.4332 10.7434H17.7713L18.5804 9.15207L17.1758 6.19924H17.8724L18.8905 8.46549L19.8814 6.19924H20.5743Z" fill="#5F6368"/>
<path id="Vector_4" d="M8.8337 7.08238C8.8337 6.90272 8.81855 6.72305 8.7876 6.54572H6.07812V7.5648H7.62613C7.59461 7.72676 7.52802 7.88117 7.43035 8.0188C7.33267 8.15642 7.20593 8.27441 7.0577 8.36572V9.02722H7.98234C8.26348 8.77597 8.4845 8.47309 8.63113 8.13812C8.77777 7.80314 8.84678 7.4435 8.8337 7.08238Z" fill="#4285F4"/>
<path id="Vector_5" d="M6.08064 9.67043C6.77937 9.68814 7.45916 9.45932 7.98169 9.03051L7.0558 8.36551C6.83333 8.49726 6.58126 8.58041 6.31876 8.60865C6.05626 8.63689 5.79025 8.60948 5.54095 8.52849C5.29165 8.4475 5.06562 8.31507 4.88007 8.14127C4.69451 7.96747 4.55431 7.75688 4.47012 7.52551H3.52148V8.20801C3.75886 8.64728 4.12404 9.01679 4.57607 9.2751C5.02809 9.53341 5.54909 9.6703 6.08064 9.67043Z" fill="#34A853"/>
<path id="Vector_6" d="M4.47111 7.52936C4.35098 7.20112 4.35098 6.84552 4.47111 6.51728V5.83478H3.52248C3.32024 6.20313 3.21484 6.61032 3.21484 7.02332C3.21484 7.43632 3.32024 7.84351 3.52248 8.21186L4.47111 7.52936Z" fill="#FFC000"/>
<path id="Vector_7" d="M6.08064 5.42359C6.48928 5.41669 6.8843 5.55927 7.17959 5.82025L8.00064 5.066C7.47712 4.61218 6.78274 4.36464 6.06485 4.37592C5.53645 4.37837 5.01911 4.51592 4.57018 4.77333C4.12125 5.03074 3.75827 5.39795 3.52148 5.83425L4.47012 6.51734C4.58104 6.20238 4.79607 5.92747 5.08496 5.73128C5.37386 5.53508 5.72208 5.42747 6.08064 5.42359Z" fill="#EA4335"/>
</g>
</g>
<defs>
<clipPath id="clip0_1_167">
<rect width="24" height="14" fill="white" transform="translate(0 0.5)"/>
</clipPath>
</defs>
</svg>
