<svg width="32" height="32" viewBox="0 0 32 32" fill="none" xmlns="http://www.w3.org/2000/svg">
<g id="Group 1000004656">
<circle id="Ellipse 120" cx="16" cy="16" r="16" fill="#2C7EF8"/>
<g id="percent">
<mask id="mask0_1_121" style="mask-type:alpha" maskUnits="userSpaceOnUse" x="6" y="6" width="20" height="20">
<rect id="Bounding box" x="6.40002" y="6.40002" width="19.2" height="19.2" fill="#D9D9D9"/>
</mask>
<g mask="url(#mask0_1_121)">
<path id="percent_2" d="M12.4001 15.2001C11.6268 15.2001 10.9668 14.9268 10.4201 14.3801C9.87343 13.8334 9.6001 13.1734 9.6001 12.4001C9.6001 11.6268 9.87343 10.9668 10.4201 10.4201C10.9668 9.87343 11.6268 9.6001 12.4001 9.6001C13.1734 9.6001 13.8334 9.87343 14.3801 10.4201C14.9268 10.9668 15.2001 11.6268 15.2001 12.4001C15.2001 13.1734 14.9268 13.8334 14.3801 14.3801C13.8334 14.9268 13.1734 15.2001 12.4001 15.2001ZM12.4001 13.6001C12.7334 13.6001 13.0168 13.4834 13.2501 13.2501C13.4834 13.0168 13.6001 12.7334 13.6001 12.4001C13.6001 12.0668 13.4834 11.7834 13.2501 11.5501C13.0168 11.3168 12.7334 11.2001 12.4001 11.2001C12.0668 11.2001 11.7834 11.3168 11.5501 11.5501C11.3168 11.7834 11.2001 12.0668 11.2001 12.4001C11.2001 12.7334 11.3168 13.0168 11.5501 13.2501C11.7834 13.4834 12.0668 13.6001 12.4001 13.6001ZM19.6001 22.4001C18.8268 22.4001 18.1668 22.1268 17.6201 21.5801C17.0734 21.0334 16.8001 20.3734 16.8001 19.6001C16.8001 18.8268 17.0734 18.1668 17.6201 17.6201C18.1668 17.0734 18.8268 16.8001 19.6001 16.8001C20.3734 16.8001 21.0334 17.0734 21.5801 17.6201C22.1268 18.1668 22.4001 18.8268 22.4001 19.6001C22.4001 20.3734 22.1268 21.0334 21.5801 21.5801C21.0334 22.1268 20.3734 22.4001 19.6001 22.4001ZM19.6001 20.8001C19.9334 20.8001 20.2168 20.6834 20.4501 20.4501C20.6834 20.2168 20.8001 19.9334 20.8001 19.6001C20.8001 19.2668 20.6834 18.9834 20.4501 18.7501C20.2168 18.5168 19.9334 18.4001 19.6001 18.4001C19.2668 18.4001 18.9834 18.5168 18.7501 18.7501C18.5168 18.9834 18.4001 19.2668 18.4001 19.6001C18.4001 19.9334 18.5168 20.2168 18.7501 20.4501C18.9834 20.6834 19.2668 20.8001 19.6001 20.8001ZM10.1601 21.8401C10.0134 21.6934 9.9401 21.5068 9.9401 21.2801C9.9401 21.0534 10.0134 20.8668 10.1601 20.7201L20.7201 10.1601C20.8668 10.0134 21.0534 9.9401 21.2801 9.9401C21.5068 9.9401 21.6934 10.0134 21.8401 10.1601C21.9868 10.3068 22.0601 10.4934 22.0601 10.7201C22.0601 10.9468 21.9868 11.1334 21.8401 11.2801L11.2801 21.8401C11.1334 21.9868 10.9468 22.0601 10.7201 22.0601C10.4934 22.0601 10.3068 21.9868 10.1601 21.8401Z" fill="white"/>
</g>
</g>
</g>
</svg>
