<svg width="24" height="15" viewBox="0 0 24 15" fill="none" xmlns="http://www.w3.org/2000/svg">
<g id="mastercard" clip-path="url(#clip0_1_160)">
<g id="Group 6">
<path id="Vector" opacity="0.07" d="M22.1053 0.5H1.89474C0.821053 0.5 0 1.25833 0 2.25V12.75C0 13.7417 0.88421 14.5 1.89474 14.5H22.1053C23.1789 14.5 24 13.7417 24 12.75V2.25C24 1.25833 23.1158 0.5 22.1053 0.5Z" fill="black"/>
<path id="Vector_2" d="M22.1055 1.08331C22.8003 1.08331 23.3687 1.60831 23.3687 2.24998V12.75C23.3687 13.3916 22.8003 13.9166 22.1055 13.9166H1.89499C1.20026 13.9166 0.631836 13.3916 0.631836 12.75V2.24998C0.631836 1.60831 1.20026 1.08331 1.89499 1.08331H22.1055Z" fill="white"/>
<path id="Vector_3" d="M9.47366 11.5834C11.9153 11.5834 13.8947 9.75518 13.8947 7.50002C13.8947 5.24486 11.9153 3.41669 9.47366 3.41669C7.03198 3.41669 5.05261 5.24486 5.05261 7.50002C5.05261 9.75518 7.03198 11.5834 9.47366 11.5834Z" fill="#EB001B"/>
<path id="Vector_4" d="M14.5265 11.5834C16.9682 11.5834 18.9476 9.75518 18.9476 7.50002C18.9476 5.24486 16.9682 3.41669 14.5265 3.41669C12.0848 3.41669 10.1055 5.24486 10.1055 7.50002C10.1055 9.75518 12.0848 11.5834 14.5265 11.5834Z" fill="#FFC000"/>
<path id="Vector_5" d="M13.8949 7.49999C13.8949 6.09999 13.137 4.87499 12.0002 4.17499C10.8634 4.93332 10.1055 6.15832 10.1055 7.49999C10.1055 8.84165 10.8634 10.125 12.0002 10.825C13.137 10.125 13.8949 8.89999 13.8949 7.49999Z" fill="#FF5F00"/>
</g>
</g>
<defs>
<clipPath id="clip0_1_160">
<rect width="24" height="14" fill="white" transform="translate(0 0.5)"/>
</clipPath>
</defs>
</svg>
