<svg width="22" height="22" viewBox="0 0 22 22" fill="none" xmlns="http://www.w3.org/2000/svg">
<g id="mdi:cards-heart-outline">
<path id="Vector" d="M10.9314 17.1698L11.002 17.234L11.0694 17.1665L11.1593 17.0766C13.3384 15.1035 15.1537 13.4584 16.4234 11.9748C17.6925 10.4919 18.432 9.15316 18.432 7.79167C18.432 5.9031 17.0123 4.48333 15.1237 4.48333C13.6972 4.48333 12.3065 5.39227 11.7837 6.64667H10.2137C9.69089 5.39227 8.30021 4.48333 6.8737 4.48333C4.98514 4.48333 3.56536 5.9031 3.56536 7.79167C3.56536 9.15315 4.30486 10.4919 5.5728 11.9748C6.84152 13.4586 8.65483 15.1039 10.8297 17.0774L10.8306 17.0782L10.8307 17.0782L10.9314 17.1698ZM10.9228 4.72179L10.9987 4.81021L11.0746 4.72179C12.0555 3.57895 13.5589 2.85 15.1237 2.85C17.8919 2.85 20.0654 5.01451 20.0654 7.79167C20.0654 9.48671 19.3019 11.0368 17.9395 12.7036C16.576 14.3717 14.6231 16.1446 12.2607 18.2868L12.2605 18.2869L10.9987 19.4356L9.73685 18.2869L9.73671 18.2868C7.37432 16.1446 5.4214 14.3717 4.0579 12.7036C2.69549 11.0368 1.93203 9.48671 1.93203 7.79167C1.93203 5.01451 4.10547 2.85 6.8737 2.85C8.43847 2.85 9.94194 3.57895 10.9228 4.72179Z" fill="white" stroke="white" stroke-width="0.2"/>
</g>
</svg>
