<svg width="24" height="15" viewBox="0 0 24 15" fill="none" xmlns="http://www.w3.org/2000/svg">
<g id="paypal" clip-path="url(#clip0_1_153)">
<g id="Group 13">
<path id="Vector" opacity="0.07" d="M22.1053 0.5H1.89474C0.821053 0.5 0 1.25833 0 2.25V12.75C0 13.7417 0.88421 14.5 1.89474 14.5H22.1053C23.1789 14.5 24 13.7417 24 12.75V2.25C24 1.25833 23.1158 0.5 22.1053 0.5Z" fill="black"/>
<path id="Vector_2" d="M22.1055 1.08331C22.8003 1.08331 23.3687 1.60831 23.3687 2.24998V12.75C23.3687 13.3916 22.8003 13.9166 22.1055 13.9166H1.89499C1.20026 13.9166 0.631836 13.3916 0.631836 12.75V2.24998C0.631836 1.60831 1.20026 1.08331 1.89499 1.08331H22.1055Z" fill="white"/>
<path id="Vector_3" d="M15.0944 5.34169C15.2207 4.75835 15.0944 4.35002 14.7155 4.00002C14.3365 3.59169 13.6418 3.41669 12.7576 3.41669H10.1681C9.97864 3.41669 9.85232 3.53335 9.78917 3.70835L8.8418 9.60002C8.8418 9.71669 8.90495 9.83335 9.03127 9.83335H10.7365L10.9892 7.85002L12.126 6.56669L15.0944 5.34169Z" fill="#003087"/>
<path id="Vector_4" d="M15.0949 5.34167L14.9686 5.45834C14.6528 7.09167 13.5791 7.67501 12.0633 7.67501H11.3686C11.1791 7.67501 11.0528 7.79167 10.9896 7.96667L10.6107 10.2417L10.4844 10.825C10.4844 10.9417 10.5475 11.0583 10.6738 11.0583H12.0002C12.1896 11.0583 12.316 10.9417 12.316 10.825V10.7667L12.5686 9.36667V9.30834C12.5686 9.19167 12.7581 9.07501 12.8844 9.07501H13.0738C14.4002 9.07501 15.4107 8.60834 15.6633 7.20834C15.7896 6.62501 15.7265 6.15834 15.4107 5.80834C15.3475 5.51667 15.2212 5.40001 15.0949 5.34167Z" fill="#3086C8"/>
<path id="Vector_5" d="M14.7156 5.22499C14.6524 5.16665 14.5893 5.16665 14.5261 5.16665C14.4629 5.16665 14.3998 5.16665 14.3366 5.10832C14.1472 5.04999 13.8945 5.04999 13.6419 5.04999H11.7472C11.684 5.04999 11.6208 5.04999 11.6208 5.10832C11.4945 5.16665 11.4314 5.22499 11.4314 5.34165L10.9893 7.90832V7.96665C10.9893 7.79165 11.1787 7.67499 11.3682 7.67499H12.1893C13.7682 7.67499 14.7787 7.09165 15.0945 5.45832V5.34165C15.0314 5.28332 14.905 5.22499 14.7787 5.22499H14.7156Z" fill="#012169"/>
</g>
</g>
<defs>
<clipPath id="clip0_1_153">
<rect width="24" height="14" fill="white" transform="translate(0 0.5)"/>
</clipPath>
</defs>
</svg>
