<svg width="22" height="22" viewBox="0 0 22 22" fill="none" xmlns="http://www.w3.org/2000/svg">
<g id="ph:truck-light">
<path id="Vector" d="M21.1037 10.1217L19.9005 7.11391C19.8119 6.89016 19.6579 6.69832 19.4586 6.56342C19.2593 6.42852 19.024 6.35681 18.7834 6.35766H15.6406V5.5C15.6406 5.36325 15.5863 5.2321 15.4896 5.1354C15.3929 5.0387 15.2618 4.98438 15.125 4.98438H2.0625C1.74341 4.98438 1.43739 5.11113 1.21176 5.33676C0.986132 5.56239 0.859375 5.86841 0.859375 6.1875V15.8125C0.859375 16.1316 0.986132 16.4376 1.21176 16.6632C1.43739 16.8889 1.74341 17.0156 2.0625 17.0156H3.66094C3.77928 17.5984 4.09547 18.1224 4.55593 18.4988C5.01639 18.8751 5.5928 19.0807 6.1875 19.0807C6.7822 19.0807 7.35861 18.8751 7.81907 18.4988C8.27953 18.1224 8.59572 17.5984 8.71406 17.0156H13.2859C13.4043 17.5984 13.7205 18.1224 14.1809 18.4988C14.6414 18.8751 15.2178 19.0807 15.8125 19.0807C16.4072 19.0807 16.9836 18.8751 17.4441 18.4988C17.9045 18.1224 18.2207 17.5984 18.3391 17.0156H19.9375C20.2566 17.0156 20.5626 16.8889 20.7882 16.6632C21.0139 16.4376 21.1406 16.1316 21.1406 15.8125V10.3125C21.1405 10.2471 21.128 10.1824 21.1037 10.1217ZM15.6406 7.39062H18.7842C18.8186 7.39059 18.8523 7.4009 18.8808 7.4202C18.9093 7.43951 18.9313 7.46693 18.9441 7.49891L19.8636 9.79688H15.6406V7.39062ZM1.89062 6.1875C1.89062 6.14192 1.90873 6.0982 1.94097 6.06597C1.9732 6.03373 2.01692 6.01562 2.0625 6.01562H14.6094V11.8594H1.89062V6.1875ZM6.1875 18.0469C5.88156 18.0469 5.58248 17.9562 5.3281 17.7862C5.07372 17.6162 4.87545 17.3746 4.75837 17.092C4.64129 16.8093 4.61066 16.4983 4.67035 16.1982C4.73003 15.8982 4.87736 15.6225 5.09369 15.4062C5.31003 15.1899 5.58566 15.0425 5.88572 14.9828C6.18578 14.9232 6.49681 14.9538 6.77946 15.0709C7.06212 15.188 7.30371 15.3862 7.47368 15.6406C7.64365 15.895 7.73438 16.1941 7.73438 16.5C7.73438 16.9103 7.5714 17.3037 7.28131 17.5938C6.99121 17.8839 6.59776 18.0469 6.1875 18.0469ZM13.2859 15.9844H8.71406C8.59572 15.4016 8.27953 14.8776 7.81907 14.5012C7.35861 14.1249 6.7822 13.9193 6.1875 13.9193C5.5928 13.9193 5.01639 14.1249 4.55593 14.5012C4.09547 14.8776 3.77928 15.4016 3.66094 15.9844H2.0625C2.01692 15.9844 1.9732 15.9663 1.94097 15.934C1.90873 15.9018 1.89062 15.8581 1.89062 15.8125V12.8906H14.6094V14.2209C14.2725 14.3992 13.9792 14.6497 13.7504 14.9546C13.5216 15.2594 13.363 15.6111 13.2859 15.9844ZM15.8125 18.0469C15.5066 18.0469 15.2075 17.9562 14.9531 17.7862C14.6987 17.6162 14.5005 17.3746 14.3834 17.092C14.2663 16.8093 14.2357 16.4983 14.2953 16.1982C14.355 15.8982 14.5024 15.6225 14.7187 15.4062C14.935 15.1899 15.2107 15.0425 15.5107 14.9828C15.8108 14.9232 16.1218 14.9538 16.4045 15.0709C16.6871 15.188 16.9287 15.3862 17.0987 15.6406C17.2687 15.895 17.3594 16.1941 17.3594 16.5C17.3594 16.9103 17.1964 17.3037 16.9063 17.5938C16.6162 17.8839 16.2228 18.0469 15.8125 18.0469ZM20.1094 15.8125C20.1094 15.8581 20.0913 15.9018 20.059 15.934C20.0268 15.9663 19.9831 15.9844 19.9375 15.9844H18.3391C18.2194 15.4024 17.9028 14.8795 17.4426 14.5038C16.9823 14.1281 16.4066 13.9226 15.8125 13.9219C15.7549 13.9219 15.6973 13.9219 15.6406 13.9279V10.8281H20.1094V15.8125Z" fill="white"/>
</g>
</svg>
