<svg width="24" height="15" viewBox="0 0 24 15" fill="none" xmlns="http://www.w3.org/2000/svg">
<g id="shop pay" clip-path="url(#clip0_1_148)">
<g id="Group 8">
<path id="Vector" opacity="0.07" d="M22.1053 0.5H1.89474C0.821053 0.5 0 1.25833 0 2.25V12.75C0 13.7417 0.88421 14.5 1.89474 14.5H22.1053C23.1789 14.5 24 13.7417 24 12.75V2.25C24 1.25833 23.1158 0.5 22.1053 0.5Z" fill="black"/>
<path id="Vector_2" d="M22.1055 1.08331C22.8003 1.08331 23.3687 1.60831 23.3687 2.24998V12.75C23.3687 13.3916 22.8003 13.9166 22.1055 13.9166H1.89499C1.20026 13.9166 0.631836 13.3916 0.631836 12.75V2.24998C0.631836 1.60831 1.20026 1.08331 1.89499 1.08331H22.1055Z" fill="#5A31F4"/>
<path id="Vector_3" d="M13.5037 6.16601C13.5037 7.13901 12.7603 7.83317 11.722 7.83317H10.7437C10.7276 7.8334 10.7118 7.83792 10.6984 7.8462C10.6849 7.85447 10.6744 7.86616 10.6679 7.87984C10.6638 7.88889 10.6616 7.8986 10.6616 7.90842V9.18709C10.6616 9.19702 10.6595 9.20686 10.6553 9.21602C10.6512 9.22519 10.6452 9.23351 10.6375 9.24051C10.6299 9.2475 10.6208 9.25304 10.6109 9.25678C10.6009 9.26053 10.5903 9.26242 10.5795 9.26234H9.89487C9.8731 9.26234 9.85221 9.25435 9.83682 9.24013C9.82142 9.22591 9.81277 9.20662 9.81277 9.18651V4.57526C9.81251 4.56023 9.8172 4.54549 9.82623 4.53299C9.83525 4.52049 9.84818 4.51082 9.86329 4.50526C9.8733 4.50139 9.88403 4.49941 9.89487 4.49942H11.7265C12.7603 4.49942 13.5037 5.19359 13.5037 6.16659V6.16601ZM12.6498 6.16601C12.6498 5.60718 12.2342 5.19884 11.6709 5.19884H10.7437C10.7329 5.19884 10.7223 5.2008 10.7123 5.20461C10.7023 5.20842 10.6933 5.21401 10.6857 5.22105C10.678 5.22809 10.672 5.23645 10.6679 5.24565C10.6637 5.25486 10.6616 5.26472 10.6616 5.27468V7.05384C10.6615 7.06382 10.6636 7.07371 10.6677 7.08294C10.6718 7.09216 10.6779 7.10052 10.6856 7.10751C10.6932 7.11457 10.7023 7.12017 10.7123 7.12398C10.7222 7.12778 10.7329 7.12972 10.7437 7.12967H11.6709C12.2342 7.13259 12.6498 6.72426 12.6498 6.16601ZM13.7071 8.37742C13.6999 8.22798 13.7335 8.07926 13.8049 7.945C13.8764 7.81073 13.9832 7.69524 14.1157 7.60917C14.3829 7.42484 14.8003 7.32917 15.4136 7.30934L16.066 7.28834V7.11159C16.066 6.75751 15.8071 6.60817 15.3915 6.60817C14.9759 6.60817 14.7126 6.74292 14.6526 6.96401C14.6474 6.97954 14.6369 6.99309 14.6227 7.00257C14.6084 7.01206 14.5912 7.01695 14.5736 7.01651H13.9281C13.9104 7.01672 13.893 7.0116 13.8787 7.00193C13.8643 6.99225 13.8537 6.97854 13.8486 6.96284C13.8451 6.95245 13.8443 6.94149 13.846 6.93076C13.942 6.40692 14.417 6.00909 15.4212 6.00909C16.4898 6.00909 16.8757 6.46584 16.8757 7.33676V9.18709C16.8756 9.1971 16.8734 9.20699 16.8692 9.2162C16.8649 9.22541 16.8587 9.23376 16.851 9.24075C16.8432 9.24775 16.8341 9.25326 16.824 9.25696C16.8139 9.26067 16.8032 9.2625 16.7923 9.26234H16.1418C16.12 9.26234 16.0992 9.25435 16.0838 9.24013C16.0684 9.22591 16.0597 9.20662 16.0597 9.18651V9.04884C16.0599 9.03742 16.0563 9.02621 16.0495 9.01673C16.0426 9.00724 16.0327 8.99992 16.0212 8.99576C16.0098 8.99161 15.9973 8.99062 15.9853 8.9929C15.9733 8.99518 15.9623 9.00063 15.9536 9.00859C15.7578 9.20343 15.4433 9.34401 14.9387 9.34401C14.1966 9.34401 13.7071 8.98992 13.7071 8.37742ZM16.066 7.97668V7.83317L15.2203 7.87401C14.7751 7.89501 14.5161 8.06417 14.5161 8.35001C14.5161 8.60901 14.7536 8.75251 15.1692 8.75251C15.7332 8.75251 16.066 8.47251 16.066 7.97668ZM17.5288 10.66V10.1239C17.5289 10.1127 17.5318 10.1016 17.5371 10.0915C17.5425 10.0815 17.5502 10.0726 17.5597 10.0656C17.5692 10.0585 17.5802 10.0535 17.5919 10.0508C17.6037 10.048 17.616 10.0477 17.6279 10.0498C17.7277 10.0668 17.8288 10.0755 17.9305 10.0755C18.1046 10.0843 18.2769 10.0387 18.4196 9.94599C18.5622 9.85328 18.6669 9.7189 18.7168 9.56451L18.7591 9.44143C18.7654 9.42481 18.7654 9.40671 18.7591 9.39009L17.4043 6.19868C17.3965 6.18116 17.396 6.16156 17.403 6.14375C17.4101 6.12593 17.424 6.11119 17.4422 6.10242C17.4543 6.09655 17.4678 6.09354 17.4814 6.09367H18.1382C18.1551 6.09372 18.1715 6.09848 18.1854 6.10733C18.1993 6.11618 18.2099 6.12871 18.2159 6.14326L19.1355 8.39434C19.1412 8.40945 19.1519 8.42254 19.166 8.43175C19.1802 8.44096 19.1971 8.44583 19.2145 8.44568C19.2317 8.44566 19.2486 8.44072 19.2627 8.43153C19.2768 8.42234 19.2876 8.40936 19.2934 8.39434L20.0923 6.14968C20.0978 6.1342 20.1084 6.12074 20.1227 6.11129C20.1371 6.10183 20.1543 6.09689 20.1719 6.09718H20.8515C20.8719 6.09729 20.8916 6.10419 20.9069 6.11662C20.9222 6.12906 20.9321 6.14618 20.9349 6.16484C20.9364 6.17729 20.9347 6.18989 20.9298 6.20159L19.4803 9.74593C19.1469 10.5702 18.5753 10.7802 17.9456 10.7802C17.8261 10.7832 17.7068 10.7703 17.5913 10.7417C17.5719 10.7373 17.5549 10.7266 17.5433 10.7117C17.5317 10.6967 17.5264 10.6783 17.5281 10.66H17.5288ZM5.41193 4.23342C4.55014 4.22748 3.7183 4.52516 3.08582 5.06584C3.05891 5.08845 3.04211 5.11953 3.03872 5.15298C3.03533 5.18643 3.0456 5.21985 3.0675 5.24667L3.45782 5.73609C3.47047 5.75259 3.48689 5.76632 3.50593 5.7763C3.52498 5.78627 3.54616 5.79225 3.56799 5.79381C3.58981 5.79537 3.61174 5.79247 3.63222 5.78532C3.65269 5.77817 3.67121 5.76693 3.68645 5.75242C3.91377 5.54394 4.18374 5.37932 4.48062 5.26815C4.77751 5.15699 5.09538 5.1015 5.41572 5.10492C6.75466 5.10492 7.45382 6.02892 7.45382 6.94242C7.45382 7.93409 6.71929 8.63293 5.66329 8.64634C4.84729 8.64634 4.23214 8.15051 4.23214 7.49484C4.23284 7.32905 4.27363 7.16549 4.35154 7.01612C4.42945 6.86675 4.54251 6.73535 4.68245 6.63151C4.71225 6.60893 4.73116 6.57639 4.73507 6.54098C4.73897 6.50557 4.72755 6.47017 4.70329 6.44251L4.29277 5.96709C4.28037 5.95247 4.26491 5.94032 4.2473 5.93137C4.22969 5.92242 4.2103 5.91685 4.1903 5.915C4.17029 5.91314 4.15009 5.91505 4.13091 5.92059C4.11172 5.92613 4.09395 5.93521 4.07866 5.94726C3.82723 6.13354 3.62398 6.3693 3.48372 6.63734C3.34396 6.90479 3.27121 7.19787 3.27087 7.49484C3.27087 8.62359 4.31614 9.50851 5.65508 9.51551H5.67403C7.26371 9.49684 8.41319 8.41651 8.41319 6.94009C8.41319 5.62934 7.36035 4.23342 5.41193 4.23342Z" fill="white"/>
</g>
</g>
<defs>
<clipPath id="clip0_1_148">
<rect width="24" height="14" fill="white" transform="translate(0 0.5)"/>
</clipPath>
</defs>
</svg>
