<svg width="16" height="17" viewBox="0 0 16 17" fill="none" xmlns="http://www.w3.org/2000/svg">
<g id="verify 1" clip-path="url(#clip0_1_205)">
<path id="Vector" d="M15.64 7.64093L14.5523 6.37725C14.3443 6.13731 14.1764 5.68942 14.1764 5.3695V4.00984C14.1764 3.16205 13.4805 2.46623 12.6327 2.46623H11.2731C10.9612 2.46623 10.5053 2.29827 10.2653 2.09032L9.00164 1.00259C8.44978 0.530711 7.54601 0.530711 6.98615 1.00259L5.73046 2.09832C5.49052 2.29827 5.03463 2.46623 4.72271 2.46623H3.33906C2.49127 2.46623 1.79544 3.16205 1.79544 4.00984V5.3775C1.79544 5.68942 1.62749 6.13731 1.42754 6.37725L0.347806 7.64893C-0.116078 8.20079 -0.116078 9.09657 0.347806 9.64843L1.42754 10.9201C1.62749 11.1601 1.79544 11.6079 1.79544 11.9199V13.2875C1.79544 14.1353 2.49127 14.8311 3.33906 14.8311H4.72271C5.03463 14.8311 5.49052 14.9991 5.73046 15.207L6.99414 16.2948C7.54601 16.7667 8.44978 16.7667 9.00964 16.2948L10.2733 15.207C10.5133 14.9991 10.9612 14.8311 11.2811 14.8311H12.6407C13.4885 14.8311 14.1843 14.1353 14.1843 13.2875V11.9279C14.1843 11.6159 14.3523 11.1601 14.5603 10.9201L15.648 9.65643C16.1119 9.10457 16.1119 8.1928 15.64 7.64093ZM11.3211 7.13706L7.45803 11.0001C7.34606 11.1121 7.1941 11.1761 7.03414 11.1761C6.87418 11.1761 6.72221 11.1121 6.61024 11.0001L4.67472 9.06458C4.44278 8.83264 4.44278 8.44873 4.67472 8.21679C4.90667 7.98485 5.29057 7.98485 5.52251 8.21679L7.03414 9.72841L10.4733 6.28927C10.7052 6.05733 11.0891 6.05733 11.3211 6.28927C11.553 6.52121 11.553 6.90512 11.3211 7.13706Z" fill="#5BB59A"/>
</g>
<defs>
<clipPath id="clip0_1_205">
<rect width="16" height="16" fill="white" transform="translate(-0.000137329 0.648621)"/>
</clipPath>
</defs>
</svg>
