<svg width="24" height="15" viewBox="0 0 24 15" fill="none" xmlns="http://www.w3.org/2000/svg">
<g id="visa" clip-path="url(#clip0_1_143)">
<g id="Group 7">
<path id="Vector" opacity="0.07" d="M22.1053 0.5H1.89474C0.821053 0.5 0 1.25833 0 2.25V12.75C0 13.7417 0.88421 14.5 1.89474 14.5H22.1053C23.1789 14.5 24 13.7417 24 12.75V2.25C24 1.25833 23.1158 0.5 22.1053 0.5Z" fill="black"/>
<path id="Vector_2" d="M22.1055 1.08331C22.8003 1.08331 23.3687 1.60831 23.3687 2.24998V12.75C23.3687 13.3916 22.8003 13.9166 22.1055 13.9166H1.89499C1.20026 13.9166 0.631836 13.3916 0.631836 12.75V2.24998C0.631836 1.60831 1.20026 1.08331 1.89499 1.08331H22.1055Z" fill="white"/>
<path id="Vector_3" d="M17.874 6.39169H17.6845C17.4319 6.97502 17.2424 7.26669 17.0529 8.14169H18.2529C18.0635 7.26669 18.0635 6.85835 17.874 6.39169ZM19.7056 9.83335H18.6319C18.5687 9.83335 18.5687 9.83335 18.5056 9.77502L18.3793 9.25002L18.3161 9.13335H16.8003C16.7372 9.13335 16.674 9.13335 16.674 9.25002L16.4845 9.77502C16.4845 9.83335 16.4214 9.83335 16.4214 9.83335H15.095L15.2214 9.54169L17.0529 5.57502C17.0529 5.28335 17.2424 5.16669 17.5582 5.16669H18.5056C18.5687 5.16669 18.6319 5.16669 18.6319 5.28335L19.5161 9.07502C19.5793 9.30835 19.6424 9.48335 19.6424 9.71669C19.7056 9.77502 19.7056 9.77502 19.7056 9.83335ZM11.2424 9.65835L11.495 8.60835C11.5582 8.60835 11.6214 8.66669 11.6214 8.66669C12.0635 8.84169 12.5056 8.95835 12.9477 8.90002C13.074 8.90002 13.2635 8.84169 13.3898 8.78335C13.7056 8.66669 13.7056 8.37502 13.4529 8.14169C13.3266 8.02502 13.1371 7.96669 12.9477 7.85002C12.695 7.73335 12.4424 7.61669 12.2529 7.44169C11.495 6.85835 11.7477 6.04169 12.1898 5.63335C12.5687 5.40002 12.7582 5.16669 13.2635 5.16669C14.0214 5.16669 14.8424 5.16669 15.2214 5.28335H15.2845C15.2214 5.63335 15.1582 5.92502 15.0319 6.27502C14.7161 6.15835 14.4003 6.04169 14.0845 6.04169C13.895 6.04169 13.7056 6.04169 13.5161 6.10002C13.3898 6.10002 13.3266 6.15835 13.2635 6.21669C13.1371 6.33335 13.1371 6.50835 13.2635 6.62502L13.5793 6.85835C13.8319 6.97502 14.0845 7.09169 14.274 7.20835C14.5898 7.38335 14.9056 7.67502 14.9687 8.02502C15.095 8.55002 14.9056 9.01669 14.4003 9.36669C14.0845 9.60002 13.9582 9.71669 13.5161 9.71669C12.6319 9.71669 11.9372 9.77502 11.3687 9.60002C11.3056 9.71669 11.3056 9.71669 11.2424 9.65835ZM9.03189 9.83335C9.09505 9.42502 9.09505 9.42502 9.1582 9.25002C9.47399 7.96669 9.78978 6.62502 10.0424 5.34169C10.1056 5.22502 10.1056 5.16669 10.2319 5.16669H11.3687C11.2424 5.86669 11.1161 6.39169 10.9266 7.03335C10.7371 7.90835 10.5477 8.78335 10.295 9.65835C10.295 9.77502 10.2319 9.77502 10.1056 9.77502M3.1582 5.28335C3.1582 5.22502 3.28452 5.16669 3.34768 5.16669H5.49504C5.81083 5.16669 6.06347 5.34169 6.12662 5.63335L6.69505 8.20002C6.69505 8.25835 6.69504 8.25835 6.7582 8.31669C6.7582 8.25835 6.82136 8.25835 6.82136 8.25835L8.14768 5.28335C8.08452 5.22502 8.14768 5.16669 8.21083 5.16669H9.53715C9.53715 5.22502 9.53715 5.22502 9.47399 5.28335L7.5161 9.54169C7.45294 9.65835 7.45294 9.71669 7.38978 9.77502C7.32662 9.83335 7.20031 9.77502 7.07399 9.77502H6.12662C6.06347 9.77502 6.00031 9.77502 6.00031 9.65835L4.98978 6.04169C4.86347 5.92502 4.67399 5.75002 4.42136 5.69169C4.04241 5.51669 3.34768 5.40002 3.22136 5.40002L3.1582 5.28335Z" fill="#142688"/>
</g>
</g>
<defs>
<clipPath id="clip0_1_143">
<rect width="24" height="14" fill="white" transform="translate(0 0.5)"/>
</clipPath>
</defs>
</svg>
